{"title":"Thor 2011 TS  XViD - DTRG - SAFCuk009","uid":6361270,"size":1578255184,"categoryP":"video","categoryS":"movies","magnet":"?xt=urn:btih:d4be11d2bf8ed9d23bee62c445ad2b4580446369&amp;dn=Thor+2011+TS++XViD+-+DTRG+-+SAFCuk009&amp;tr=udp%3A%2F%2Ftracker.openbittorrent.com%3A80&amp;tr=udp%3A%2F%2Fopen.demonii.com%3A1337&amp;tr=udp%3A%2F%2Ftracker.coppersurfer.tk%3A6969&amp;tr=udp%3A%2F%2Fexodus.desync.com%3A6969","seeders":1,"leechers":0,"uploader":"SAFCukO09","files":4,"time":1304337508,"description":"\n\n\nFormat                           : AVI\nFormat/Info                      : Audio Video Interleave\nFile size                        : 1.47 GiB\nDuration                         : 1h 44mn\nOverall bit rate                 : 2 017 Kbps\nWriting application              : VirtualDubMod 1.5.10.3 | www.virtualdub-fr.org || (build 2550/release)\nWriting library                  : VirtualDubMod build 2550/release\n\nVideo\nID                               : 0\nFormat                           : MPEG-4 Visual\nFormat profile                   : Advanced Simple@L5\nFormat settings, BVOP            : Yes\nFormat settings, QPel            : No\nFormat settings, GMC             : No warppoints\nFormat settings, Matrix          : Custom\nCodec ID                         : XVID\nCodec ID/Hint                    : XviD\nDuration                         : 1h 44mn\nBit rate                         : 1 879 Kbps\nWidth                            : 720 pixels\nHeight                           : 304 pixels\nDisplay aspect ratio             : 2.35:1\nFrame rate                       : 25.000 fps\nColor space                      : YUV\nChroma subsampling               : 4:2:0\nBit depth                        : 8 bits\nScan type                        : Progressive\nBits/(Pixel*Frame)               : 0.343\nStream size                      : 1.37 GiB (93%)\nWriting library                  : XviD 1.2.1 (UTC 2008-12-04)\n\nAudio\nID                               : 1\nFormat                           : MPEG Audio\nFormat version                   : Version 1\nFormat profile                   : Layer 3\nMode                             : Joint stereo\nMode extension                   : MS Stereo\nCodec ID                         : 55\nCodec ID/Hint                    : MP3\nDuration                         : 1h 44mn\nBit rate mode                    : Constant\nBit rate                         : 128 Kbps\nChannel(s)                       : 2 channels\nSampling rate                    : 44.1 KHz\nVideo delay                      : 4ms\nStream size                      : 95.2 MiB (6%)\nAlignment                        : Split accross interleaves\nInterleave, duration             : 40 ms (1.00 video frame)\nInterleave, preload duration     : 500 ms\n\n\n\n &lt;a href=&quot;\nhttp://www.imdb.com/title/tt0800369/&quot; rel=&quot;nofollow&quot; target=&quot;_NEW&quot;&gt;\nhttp://www.imdb.com/title/tt0800369/&lt;/a&gt;\n\n\n\n\n\n\n\nUsers: 7.7/10 (7,204 votes) 115 reviews | Critics: 95 reviews\n\nThe powerful but arrogant warrior Thor is cast out of the fantastic realm of Asgard and sent to live amongst humans on Earth, where he soon becomes one of their finest defenders.\nDirector:\nKenneth Branagh\nWriters:\nAshley Miller (screenplay), Zack Stentz (screenplay), and 6 more credits Ã‚Â»\nStars:\nChris Hemsworth, Anthony Hopkins and Natalie Portman\n\n\n\n\n\n\n &lt;a href=&quot;\nhttp://img638.imageshack.us/img638/8379/vlcsnap2011050209h14m13.png&quot; rel=&quot;nofollow&quot; target=&quot;_NEW&quot;&gt;\nhttp://img638.imageshack.us/img638/8379/vlcsnap2011050209h14m13.png&lt;/a&gt;\n &lt;a href=&quot;\nhttp://img69.imageshack.us/img69/9079/vlcsnap2011050209h29m25.png&quot; rel=&quot;nofollow&quot; target=&quot;_NEW&quot;&gt;\nhttp://img69.imageshack.us/img69/9079/vlcsnap2011050209h29m25.png&lt;/a&gt;\n &lt;a href=&quot;\nhttp://img831.imageshack.us/img831/5469/vlcsnap2011050209h31m04.png&quot; rel=&quot;nofollow&quot; target=&quot;_NEW&quot;&gt;\nhttp://img831.imageshack.us/img831/5469/vlcsnap2011050209h31m04.png&lt;/a&gt;\n\n\n\nSOURCES:\n\n\n\nVIDEO:Thor.iNT.CAM.XviD.Hungarian-G1-CiNEDUB\n\nAUDIO:IMAGiNE\n\nSource has a few issues but this is watchable for now till a better source comes along ......Has a scroll/flicker from time to time ,glare which i tried to tone down abit  other than that changed rgb colours levels filter and slight smoother \n\nEnjoy !\n\n\n\n\n\nGreetz to Imagine ,Flawl3ss,DiLLoN,BDK,NOiR,TOXiCiNK,THC,Ez,Rx,Boobyblue,TaRiQ786,LKRG\n\n\n\n\n\n\n\n\n\n\n\n\n","torrent":{"xt":"urn:btih:d4be11d2bf8ed9d23bee62c445ad2b4580446369","amp;dn":"Thor+2011+TS++XViD+-+DTRG+-+SAFCuk009","amp;tr":["udp%3A%2F%2Ftracker.openbittorrent.com%3A80","udp%3A%2F%2Fopen.demonii.com%3A1337","udp%3A%2F%2Ftracker.coppersurfer.tk%3A6969","udp%3A%2F%2Fexodus.desync.com%3A6969"],"infoHash":"d4be11d2bf8ed9d23bee62c445ad2b4580446369","infoHashBuffer":{"type":"Buffer","data":[212,190,17,210,191,142,217,210,59,238,98,196,69,173,43,69,128,68,99,105]},"announce":[],"urlList":[]}}